<svg width="42" height="41" viewBox="0 0 42 41" fill="none" xmlns="http://www.w3.org/2000/svg"><mask id="mask0_5080_4804" style="mask-type:luminance" maskUnits="userSpaceOnUse" x="0" y="0" width="42" height="41"><path d="M0.0136719 -3.05176e-05H41.0137V41H0.0136719V-3.05176e-05Z" fill="white"></path></mask><g mask="url(#mask0_5080_4804)"><path d="M1.21484 1.20117H17.2305V4.88476L12.9863 8.32812H5.45898L1.21484 4.88476V1.20117Z" stroke="#F25354" stroke-width="2.40235" stroke-miterlimit="22.926" stroke-linecap="round" stroke-linejoin="round"></path><path d="M6.17969 8.48825H12.2656V36.7559L9.22266 39.7988L6.17969 36.7559V8.48825Z" stroke="#F25354" stroke-width="2.40235" stroke-miterlimit="22.926" stroke-linecap="round" stroke-linejoin="round"></path><path d="M4.19531 16.8022L14.2507 14.1079" stroke="#F25354" stroke-width="2.40235" stroke-miterlimit="22.926" stroke-linecap="round" stroke-linejoin="round"></path><path d="M4.19531 21.7529L14.2507 19.0586" stroke="#F25354" stroke-width="2.40235" stroke-miterlimit="22.926" stroke-linecap="round" stroke-linejoin="round"></path><path d="M4.19531 26.7178L14.2507 24.0235" stroke="#F25354" stroke-width="2.40235" stroke-miterlimit="22.926" stroke-linecap="round" stroke-linejoin="round"></path><path d="M4.19531 31.6826L14.2507 28.9883" stroke="#F25354" stroke-width="2.40235" stroke-miterlimit="22.926" stroke-linecap="round" stroke-linejoin="round"></path><path d="M23.8951 21.4211H29.2003H34.5055L37.1581 26.0156L39.8106 30.61L37.1581 35.2044L34.5055 39.7988H29.2003H23.8951L21.2425 35.2044L18.5899 30.61L21.2425 26.0156L23.8951 21.4211Z" stroke="#F25354" stroke-width="2.40235" stroke-miterlimit="22.926" stroke-linecap="round" stroke-linejoin="round"></path><path d="M29.2021 35.7148C31.8264 35.7148 33.9668 33.5744 33.9668 30.9501C33.9668 28.3259 31.8264 26.1855 29.2021 26.1855C26.5779 26.1855 24.4375 28.3259 24.4375 30.9501C24.4375 33.5744 26.5779 35.7148 29.2021 35.7148Z" stroke="#F25354" stroke-width="2.40235" stroke-miterlimit="22.926" stroke-linecap="round" stroke-linejoin="round"></path></g></svg>