<?xml version="1.0" standalone="no"?>
<!DOCTYPE svg PUBLIC "-//W3C//DTD SVG 20010904//EN"
 "http://www.w3.org/TR/2001/REC-SVG-20010904/DTD/svg10.dtd">
<svg version="1.0" xmlns="http://www.w3.org/2000/svg"
 width="260.000000pt" height="260.000000pt" viewBox="0 0 260.000000 260.000000"
 preserveAspectRatio="xMidYMid meet">
<metadata>
Created by potrace 1.14, written by Peter Selinger 2001-2017
</metadata>
<g transform="translate(0.000000,260.000000) scale(0.100000,-0.100000)"
fill="#000000" stroke="none">
<path d="M0 1300 l0 -1300 1300 0 1300 0 0 1300 0 1300 -1300 0 -1300 0 0
-1300z m1126 660 c90 -88 168 -160 174 -160 5 0 83 72 173 160 l164 160 262 0
261 0 0 -800 0 -800 -260 0 -260 0 0 100 0 100 160 0 160 0 0 600 0 600 -121
0 -121 0 -205 -200 c-113 -110 -209 -200 -213 -200 -4 0 -100 90 -213 200
l-205 200 -121 0 -121 0 0 -600 0 -600 160 0 160 0 0 -100 0 -100 -260 0 -260
0 0 800 0 800 261 0 262 0 163 -160z m554 -710 l0 -100 -140 0 -140 0 0 -315
0 -315 -100 0 -100 0 0 315 0 315 -140 0 -140 0 0 100 0 100 380 0 380 0 0
-100z"/>
</g>
</svg>
