<svg width="320" height="94" viewBox="0 0 320 94" fill="none" xmlns="http://www.w3.org/2000/svg">
<path d="M12.5 44V8H14.5L29.8 41.45L44.95 8H47.05V43.95H44.95V13.05L30.95 44H28.6L14.6 13.05V44H12.5ZM58.9027 44.75C56.8027 44.75 55.0611 44.3833 53.6777 43.65C52.2944 42.9167 51.2611 41.95 50.5777 40.75C49.8944 39.55 49.5527 38.25 49.5527 36.85C49.5527 35.2667 49.8944 33.9583 50.5777 32.925C51.2777 31.875 52.1861 31.05 53.3027 30.45C54.4194 29.85 55.6194 29.4167 56.9027 29.15C58.4694 28.8333 60.1444 28.5583 61.9277 28.325C63.7277 28.075 65.3861 27.8667 66.9027 27.7C68.4194 27.5333 69.5527 27.4 70.3027 27.3L69.5527 27.8C69.6361 24.6167 69.0527 22.25 67.8027 20.7C66.5694 19.1333 64.3861 18.35 61.2527 18.35C58.9861 18.35 57.1611 18.8583 55.7777 19.875C54.4111 20.875 53.4527 22.4167 52.9027 24.5L50.6027 23.9C51.2027 21.4 52.4277 19.5 54.2777 18.2C56.1444 16.9 58.5027 16.25 61.3527 16.25C63.8527 16.25 65.9361 16.7583 67.6027 17.775C69.2694 18.7917 70.4027 20.1667 71.0027 21.9C71.2361 22.5667 71.4027 23.375 71.5027 24.325C71.6027 25.275 71.6527 26.2 71.6527 27.1V44H69.7027V36.6L70.7027 36.65C69.9861 39.2167 68.5611 41.2083 66.4277 42.625C64.2944 44.0417 61.7861 44.75 58.9027 44.75ZM58.8027 42.65C60.7527 42.65 62.4694 42.3 63.9527 41.6C65.4527 40.9 66.6611 39.8917 67.5777 38.575C68.5111 37.2417 69.1027 35.65 69.3527 33.8C69.4861 32.8667 69.5527 31.8667 69.5527 30.8C69.5527 29.7333 69.5527 28.9667 69.5527 28.5L70.6527 29.35C69.7694 29.4333 68.5444 29.55 66.9777 29.7C65.4277 29.8333 63.7861 30.0167 62.0527 30.25C60.3194 30.4667 58.7527 30.75 57.3527 31.1C56.5361 31.3 55.6944 31.6167 54.8277 32.05C53.9611 32.4833 53.2277 33.0917 52.6277 33.875C52.0444 34.6583 51.7527 35.6667 51.7527 36.9C51.7527 37.7667 51.9694 38.6417 52.4027 39.525C52.8361 40.4083 53.5611 41.15 54.5777 41.75C55.6111 42.35 57.0194 42.65 58.8027 42.65ZM75.1523 44V17H77.2523V30L90.7523 17H93.9023L79.8023 30.5L96.0523 44H92.4523L77.2523 31V44H75.1523ZM105.903 44.75C103.219 44.75 100.969 44.15 99.1527 42.95C97.3361 41.75 95.9611 40.0833 95.0277 37.95C94.0944 35.8 93.6027 33.3167 93.5527 30.5C93.6027 27.6167 94.0944 25.1083 95.0277 22.975C95.9777 20.8417 97.3611 19.1917 99.1777 18.025C100.994 16.8417 103.236 16.25 105.903 16.25C108.403 16.25 110.628 16.85 112.578 18.05C114.544 19.2333 115.936 20.8667 116.753 22.95L114.753 23.8C114.003 22.0667 112.844 20.725 111.278 19.775C109.728 18.825 107.936 18.35 105.903 18.35C103.636 18.35 101.761 18.8667 100.278 19.9C98.7944 20.9167 97.6861 22.3417 96.9527 24.175C96.2194 25.9917 95.8361 28.1 95.8027 30.5C95.8527 34.1667 96.7194 37.1083 98.4027 39.325C100.086 41.5417 102.586 42.65 105.903 42.65C107.886 42.65 109.644 42.1917 111.178 41.275C112.711 40.3583 113.886 39.0167 114.703 37.25L116.753 38.15C115.636 40.3167 114.161 41.9583 112.328 43.075C110.494 44.1917 108.353 44.75 105.903 44.75ZM139.156 17V44H137.056V20.7L120.956 44H119.006V17H121.106V40.3L137.206 17H139.156ZM143.154 44V17H145.304L156.404 41.4L167.504 17H169.654V44H167.554V22L157.554 44H155.254L145.254 22V44H143.154Z" fill="white"/>
<path d="M155.7 87V53.1H142.5V51H171V53.1H157.8V87H155.7ZM192.142 60V87H190.042V63.7L173.942 87H171.992V60H174.092V83.3L190.192 60H192.142ZM196.141 87V60H198.291L209.391 84.4L220.491 60H222.641V87H220.541V65L210.541 87H208.241L198.241 65V87H196.141ZM226.637 87V60H228.737V84.9H240.537V60H242.637V84.9H254.387V60H256.487V87H226.637ZM280.652 60V87H278.552V63.7L262.452 87H260.502V60H262.602V83.3L278.702 60H280.652ZM284.65 87V60H286.75V72.45H304.05V60H306.15V87H304.05V74.55H286.75V87H284.65Z" fill="white"/>
</svg>
