<?xml version="1.0" ?><svg xmlns="http://www.w3.org/2000/svg" width="50" height="46" viewBox="0 0 50 46" fill="none"><style>@keyframes draw { to { stroke-dashoffset: 0; } }
@keyframes fillIn { from { fill-opacity: 0; } to { fill-opacity: 1; } }</style>
<path d="M0 0H13.3814L24.833 10.4697L36.6249 0H50V46H35.9364V44.5252H48.4799V1.47478H37.2076L25.3357 12.0142L25.3337 12.0159L24.8238 12.4605L24.1412 11.861L24.1428 11.8593L12.7862 1.47478H1.52013V44.5252H14.0849V46H0V0ZM24.1196 26.3542H12.6256V24.8794H37.5491V26.3542H25.6397V45.9324H24.1196V26.3542Z" fill="white" stroke="#ffffff" stroke-width="2" fill-opacity="0" stroke-dasharray="1000" stroke-dashoffset="1000" style="animation: draw 2s 0.0s forwards linear infinite, fillIn 1s 2.0s forwards linear infinite;"/>
<path d="M0 0H13.3814L24.833 10.4697L36.6249 0H50V46H35.9364V44.5252H48.4799V1.47478H37.2076L25.3357 12.0142L25.3337 12.0159L24.8238 12.4605L24.1412 11.861L24.1428 11.8593L12.7862 1.47478H1.52013V44.5252H14.0849V46H0V0ZM24.1196 26.3542H12.6256V24.8794H37.5491V26.3542H25.6397V45.9324H24.1196V26.3542Z" stroke="#ffffff" stroke-width="2" fill="white" fill-opacity="0" stroke-dasharray="1000" stroke-dashoffset="1000" style="animation: draw 2s 0.5s forwards linear infinite, fillIn 1s 2.5s forwards linear infinite;"/>
</svg>