<svg width="1366" height="185" viewBox="0 0 1366 185" fill="none" xmlns="http://www.w3.org/2000/svg">
<path d="M19.93 164V20.72H27.89L88.784 153.851L149.081 20.72H157.439V163.801H149.081V40.819L93.361 164H84.008L28.288 40.819V164H19.93ZM206.053 166.985C197.695 166.985 190.763 165.526 185.257 162.607C179.752 159.688 175.639 155.841 172.919 151.065C170.2 146.289 168.84 141.115 168.84 135.543C168.84 129.241 170.2 124.034 172.919 119.921C175.705 115.742 179.321 112.459 183.765 110.071C188.209 107.683 192.985 105.958 198.093 104.897C204.328 103.637 210.995 102.542 218.092 101.613C225.256 100.618 231.857 99.7893 237.893 99.126C243.929 98.4627 248.44 97.932 251.425 97.534L248.44 99.524C248.772 86.8543 246.45 77.435 241.475 71.266C236.566 65.0307 227.877 61.913 215.406 61.913C206.385 61.913 199.121 63.9362 193.615 67.9825C188.176 71.9625 184.362 78.0983 182.173 86.39L173.019 84.002C175.407 74.052 180.282 66.49 187.645 61.316C195.075 56.142 204.461 53.555 215.804 53.555C225.754 53.555 234.046 55.5782 240.679 59.6245C247.312 63.6708 251.823 69.1433 254.211 76.042C255.14 78.6953 255.803 81.9125 256.201 85.6935C256.599 89.4745 256.798 93.156 256.798 96.738V164H249.037V134.548L253.017 134.747C250.165 144.962 244.493 152.889 236.002 158.527C227.512 164.166 217.529 166.985 206.053 166.985ZM205.655 158.627C213.416 158.627 220.248 157.234 226.152 154.448C232.122 151.662 236.931 147.649 240.579 142.408C244.294 137.102 246.649 130.767 247.644 123.404C248.175 119.689 248.44 115.709 248.44 111.464C248.44 107.219 248.44 104.167 248.44 102.31L252.818 105.693C249.302 106.025 244.427 106.489 238.191 107.086C232.022 107.617 225.489 108.346 218.59 109.275C211.691 110.137 205.456 111.265 199.884 112.658C196.634 113.454 193.284 114.714 189.834 116.439C186.385 118.164 183.466 120.585 181.078 123.702C178.757 126.82 177.596 130.833 177.596 135.742C177.596 139.191 178.458 142.674 180.183 146.189C181.908 149.705 184.793 152.657 188.839 155.045C192.952 157.433 198.557 158.627 205.655 158.627ZM272.166 164V56.54H280.524V108.28L334.254 56.54H346.791L290.673 110.27L355.348 164H341.02L280.524 112.26V164H272.166ZM395.993 166.985C385.313 166.985 376.358 164.597 369.128 159.821C361.898 155.045 356.425 148.412 352.71 139.921C348.996 131.364 347.039 121.48 346.84 110.27C347.039 98.7943 348.996 88.8112 352.71 80.3205C356.491 71.8298 361.997 65.2628 369.227 60.6195C376.458 55.9098 385.38 53.555 395.993 53.555C405.943 53.555 414.798 55.943 422.559 60.719C430.387 65.4287 435.926 71.9293 439.176 80.221L431.216 83.604C428.231 76.7053 423.621 71.3655 417.385 67.5845C411.216 63.8035 404.086 61.913 395.993 61.913C386.972 61.913 379.509 63.9693 373.605 68.082C367.702 72.1283 363.291 77.7998 360.372 85.0965C357.453 92.3268 355.928 100.718 355.795 110.27C355.994 124.863 359.443 136.571 366.143 145.393C372.843 154.216 382.793 158.627 395.993 158.627C403.887 158.627 410.885 156.803 416.987 153.154C423.09 149.506 427.767 144.166 431.017 137.135L439.176 140.717C434.732 149.34 428.861 155.874 421.564 160.318C414.268 164.763 405.744 166.985 395.993 166.985ZM529.78 56.54V164H521.422V71.266L457.344 164H449.583V56.54H457.941V149.274L522.019 56.54H529.78ZM547.134 164V56.54H555.691L599.869 153.652L644.047 56.54H652.604V164H644.246V76.44L604.446 164H595.292L555.492 76.44V164H547.134ZM739.883 164V29.078H687.347V20.72H800.777V29.078H748.241V164H739.883ZM886.363 56.54V164H878.005V71.266L813.927 164H806.166V56.54H814.524V149.274L878.602 56.54H886.363ZM903.717 164V56.54H912.274L956.452 153.652L1000.63 56.54H1009.19V164H1000.83V76.44L961.029 164H951.875L912.075 76.44V164H903.717ZM1026.53 164V56.54H1034.89V155.642H1081.85V56.54H1090.21V155.642H1136.98V56.54H1145.33V164H1026.53ZM1242.95 56.54V164H1234.59V71.266L1170.52 164H1162.76V56.54H1171.11V149.274L1235.19 56.54H1242.95ZM1260.31 164V56.54H1268.66V106.091H1337.52V56.54H1345.88V164H1337.52V114.449H1268.66V164H1260.31Z" fill="white"/>
</svg>
